<svg xmlns="http://www.w3.org/2000/svg" viewBox="0 0 880 520" role="img" aria-labelledby="t d">
  <title id="t">:::</title>
  <desc id="d">ÐÐú0 ú0-A07ˆM(::-03^°:žÍ</desc>
  <rect width="880" height="520" fill="#f3ead4"/>
  <g stroke="#d7c59a" stroke-width="18" fill="none" stroke-linecap="round">
    <path d="M-20 168 H920"/>
    <path d="M-20 338 H920"/>
    <path d="M210 -20 V540"/>
    <path d="M620 -20 V540"/>
  </g>
  <g stroke="#cbb888" stroke-width="8" fill="none">
    <path d="M-10 250 H900"/>
    <path d="M410 -10 V530"/>
  </g>
  <g fill="#e4d4b0" stroke="#c9b48a" stroke-width="1.2">
    <rect x="80" y="70" width="90" height="58" rx="4"/>
    <rect x="690" y="80" width="110" height="70" rx="4"/>
    <rect x="700" y="380" width="86" height="54" rx="4"/>
    <rect x="70" y="390" width="100" height="48" rx="4"/>
  </g>
  <g fill="#d7eee2" stroke="#7d9e88" stroke-width="1.4">
    <rect x="248" y="196" width="168" height="112" rx="8"/>
    <rect x="268" y="214" width="52" height="36" rx="3" fill="#cfe0d4"/>
    <rect x="332" y="214" width="52" height="36" rx="3" fill="#cfe0d4"/>
  </g>
  <g fill="#163528">
    <circle cx="332" cy="248" r="13"/>
    <circle cx="332" cy="248" r="5.5" fill="#fffdf8"/>
    <path d="M332 228c-14 0-24 11-24 26c0 22 24 42 24 42s24-20 24-42c0-15-10-26-24-26z" fill="#b42318"/>
    <circle cx="332" cy="250" r="6.5" fill="#fffdf8"/>
  </g>
  <g font-family="Songti SC, STSong, Noto Serif CJK SC, serif" fill="#163528">
    <text x="332" y="188" text-anchor="middle" font-size="18" font-weight="600">::-03</text>
    <text x="332" y="334" text-anchor="middle" font-size="15">ÐÐú0 · ú0-A07</text>
    <text x="125" y="148" text-anchor="middle" font-size="12" fill="#5c7266">:</text>
    <text x="745" y="154" text-anchor="middle" font-size="12" fill="#5c7266">™“</text>
  </g>
  <text x="20" y="504" font-family="PingFang SC, Microsoft YaHei, sans-serif" font-size="12" fill="#5c7266">::: · ˆM(::-03^°:žÍ	</text>
</svg>
